<?xml version="1.0" encoding="UTF-8" standalone="no"?>
<!-- Uploaded to: SVG Repo, www.svgrepo.com, Generator: SVG Repo Mixer Tools -->

<svg
   aria-label="Jellyfin"
   role="img"
   viewBox="0 0 512 512"
   version="1.1"
   id="svg36"
   sodipodi:docname="jellyfin-sql-tweak.svg"
   inkscape:version="1.2 (dc2aedaf03, 2022-05-15)"
   xmlns:inkscape="http://www.inkscape.org/namespaces/inkscape"
   xmlns:sodipodi="http://sodipodi.sourceforge.net/DTD/sodipodi-0.dtd"
   xmlns:xlink="http://www.w3.org/1999/xlink"
   xmlns="http://www.w3.org/2000/svg"
   xmlns:svg="http://www.w3.org/2000/svg">
  <sodipodi:namedview
     id="namedview38"
     pagecolor="#ffffff"
     bordercolor="#666666"
     borderopacity="1.0"
     inkscape:showpageshadow="2"
     inkscape:pageopacity="0.0"
     inkscape:pagecheckerboard="0"
     inkscape:deskcolor="#d1d1d1"
     showgrid="false"
     inkscape:zoom="0.90736163"
     inkscape:cx="219.31719"
     inkscape:cy="194.52002"
     inkscape:window-width="1600"
     inkscape:window-height="838"
     inkscape:window-x="-8"
     inkscape:window-y="-8"
     inkscape:window-maximized="1"
     inkscape:current-layer="svg36" />
  <path
     fill-rule="evenodd"
     clip-rule="evenodd"
     d="m 55.456574,118.4845 c 0,-35.334369 28.197305,-62.6963 63.205306,-80.200195 C 154.69783,20.26633 203.2782,9.6180506 256,9.6180506 c 52.72117,0 101.30309,10.6482794 137.33904,28.6662544 35.00685,17.503895 63.20439,44.865826 63.20439,80.200195 v 275.031 c 0,35.3346 -28.19754,62.69562 -63.20439,80.19904 -36.03595,18.01911 -84.61787,28.66741 -137.33904,28.66741 -52.7218,0 -101.30217,-10.6483 -137.33812,-28.66741 C 83.653879,456.21112 55.456574,428.8501 55.456574,393.5155 Z m 34.378878,0 c 0,-15.29745 12.847818,-33.774044 44.201118,-49.450812 C 164.3615,53.871212 207.45818,43.996928 256,43.996928 c 48.54298,0 91.63806,9.874284 121.96251,25.03676 31.35354,15.676768 44.20207,34.153362 44.20207,49.450812 0,15.29744 -12.84853,33.77404 -44.20207,49.4508 -30.32445,15.16248 -73.41953,25.03676 -121.96251,25.03676 -48.54182,0 -91.6385,-9.87428 -121.96343,-25.03676 -31.3533,-15.67676 -44.201118,-34.15336 -44.201118,-49.4508 z m 0,275.031 c 0,15.29629 12.847818,33.77381 44.201118,49.45058 30.32493,15.16337 73.42161,25.03699 121.96343,25.03699 48.54298,0 91.63806,-9.87362 121.96251,-25.03699 31.35354,-15.67677 44.20207,-34.15429 44.20207,-49.45058 v -75.46852 c -8.63368,6.88721 -18.42937,12.95398 -28.82554,18.15205 -36.03595,18.01911 -84.61787,28.66741 -137.33904,28.66741 -52.72182,0 -101.30217,-10.6483 -137.33812,-28.66741 -10.39617,-5.19807 -20.191624,-11.26481 -28.826428,-18.15205 z M 422.16458,180.53196 v 75.46803 c 0,15.29629 -12.84853,33.77381 -44.20207,49.45058 -30.32445,15.16337 -73.41953,25.03699 -121.96251,25.03699 -48.54182,0 -91.6385,-9.87362 -121.9634,-25.03699 C 102.68327,289.7738 89.835452,271.29628 89.835452,255.99999 v -75.46803 c 8.634804,6.88723 18.430258,12.95463 28.826428,18.15273 36.03595,18.01795 84.61632,28.66625 137.33812,28.66625 52.72117,0 101.30309,-10.6483 137.33904,-28.66625 10.39617,-5.1981 20.19186,-11.2655 28.82554,-18.15273 z"
     fill="#1c274c"
     id="path49"
     style="stroke-width:22.9193" />
  <path
     style="fill:#b3b3b3;stroke-width:2.59869;stroke-linecap:round"
     d="m 418.45338,182.66326 c -58.40952,39.81017 -131.84441,46.33786 -200.23407,41.13162 -44.74649,-2.70823 -88.88602,-18.18538 -126.794272,-41.33972 -3.112868,24.64924 -1.317904,51.59691 -0.862843,77.16372 3.370285,28.95446 34.915125,42.2319 58.407665,52.43554 59.55593,23.77415 126.28536,24.13949 187.95484,8.88227 30.35482,-9.61974 65.53017,-21.03279 82.20376,-50.39014 6.19482,-28.00997 1.31932,-57.39516 2.94887,-85.89367 0.16317,-1.91131 -2.26535,-2.91004 -3.62395,-1.98962 z"
     id="path1087" />
  <path
     style="fill:#b3b3b3;stroke-width:2.59869;stroke-linecap:round"
     d="m 89.99881,321.73354 c 1.58664,28.73249 -3.51063,58.50964 2.984431,86.69561 21.965819,34.12891 64.827359,46.33721 102.254569,54.86847 64.19067,11.1555 134.14575,6.621 192.12273,-25.16121 18.02632,-10.60298 37.71268,-27.02899 34.52929,-50.35871 -0.18581,-22.33347 1.34302,-45.24301 -0.77685,-67.18614 -20.55053,9.28199 -40.35163,22.74352 -63.15195,28.37 -57.45854,17.35587 -119.93066,17.65377 -178.55464,6.66731 -31.15868,-6.53043 -60.85885,-19.39263 -88.011816,-35.50428 z"
     id="path1089" />
  <path
     style="fill:#b3b3b3;stroke-width:2.59869;stroke-linecap:round"
     d="m 247.66086,43.369648 c -50.58189,2.42494 -106.12738,11.396756 -144.56712,47.141781 -17.108864,14.644471 -17.169652,42.442181 0.11672,56.851321 41.13796,35.80185 98.62854,45.60479 151.59168,46.60378 52.38384,-1.18431 109.39852,-9.26638 150.93695,-43.86805 17.7793,-13.72464 22.43219,-41.88967 5.16695,-57.932417 -36.63157,-35.704493 -90.743,-44.918301 -139.84403,-48.521848 -7.79304,-0.37991 -15.60115,-0.452019 -23.40117,-0.274567 z"
     id="path1091" />
  <defs
     id="defs26">
    <path
       d="M190.56 329.07c8.63 17.3 122.4 17.12 130.93 0 8.52-17.1-47.9-119.78-65.46-119.8-17.57 0-74.1 102.5-65.47 119.8z"
       id="A" />
    <linearGradient
       id="B"
       gradientUnits="userSpaceOnUse"
       x1="126.15"
       y1="219.32"
       x2="457.68"
       y2="410.73">
      <stop
         offset="0%"
         stop-color="#aa5cc3"
         id="stop20" />
      <stop
         offset="100%"
         stop-color="#00a4dc"
         id="stop22" />
    </linearGradient>
    <path
       d="M58.75 417.03c25.97 52.15 368.86 51.55 394.55 0S308.93 56.08 256.03 56.08c-52.92 0-223.25 308.8-197.28 360.95zm68.04-45.25c-17.02-34.17 94.6-236.5 129.26-236.5 34.67 0 146.1 202.7 129.26 236.5-16.83 33.8-241.5 34.17-258.52 0z"
       id="C" />
  </defs>
  <use
     xlink:href="#A"
     fill-opacity="0"
     stroke="#000000"
     stroke-opacity="0"
     id="use30" />
  <g
     id="g1101"
     transform="matrix(0.78594219,0,0,0.78594219,54.79871,54.798566)"
     style="opacity:1;stroke-width:2.13382;stroke-dasharray:none">
    <use
       xlink:href="#A"
       fill="url(#B)"
       id="use28"
       style="fill:url(#B);stroke-width:2.13382;stroke-dasharray:none" />
    <use
       xlink:href="#C"
       fill="url(#B)"
       id="use32"
       style="fill:url(#B);stroke-width:2.13382;stroke-dasharray:none" />
  </g>
  <use
     xlink:href="#C"
     fill-opacity="0"
     stroke="#000000"
     stroke-opacity="0"
     id="use34" />
</svg>
